# xmcd
#
# Track frame offsets: 
#        150
#        19530
#        32870
#        51712
#        63625
#        83792
#        102012
#        117152
#        132972
#        147542
#        164645
#        180265
#
# Disc length: 2827 seconds
#
# Revision: 0
# Processed by: cddbd v1.5.1PL0 Copyright (c) Steve Scherf et al.
# Submitted via: ExactAudioCopy v0.95b3
#
DISCID=a80b090c
DTITLE=Jackass Flats - Purgatory Mountain
DYEAR=2005
DGENRE=Bluegrass
TTITLE0=At The Mercy
TTITLE1=Freedom Song
TTITLE2=Purgatory Mountain
TTITLE3=Story In A Song
TTITLE4=Any Old Way
TTITLE5=Quit Trying To Save Me
TTITLE6=Miracle
TTITLE7=Home Again
TTITLE8=Train2732
TTITLE9=Murder Ballad
TTITLE10=Carolina Girl
TTITLE11=The Ride
EXTD=
EXTT0=
EXTT1=
EXTT2=
EXTT3=
EXTT4=
EXTT5=
EXTT6=
EXTT7=
EXTT8=
EXTT9=
EXTT10=
EXTT11=
PLAYORDER=
